<svg xmlns="http://www.w3.org/2000/svg" width="32.492" height="34.992" viewBox="0 0 32.492 34.992"><defs><style>.a{fill:#676767;}</style></defs><g transform="translate(0 0)"><path class="a" d="M1081.664,109.776v24.994a2.533,2.533,0,0,1-2.5,2.5h-27.494a2.533,2.533,0,0,1-2.5-2.5V109.776a2.534,2.534,0,0,1,2.5-2.5h2.5V105.4a3.134,3.134,0,0,1,3.124-3.124h1.25a3.133,3.133,0,0,1,3.124,3.124v1.874h7.5V105.4a3.133,3.133,0,0,1,3.125-3.124h1.249a3.134,3.134,0,0,1,3.124,3.124v1.874h2.5a2.534,2.534,0,0,1,2.5,2.5ZM1051.671,120.4h5.624v-5.623h-5.624Zm0,7.5h5.624v-6.249h-5.624Zm0,6.873h5.624v-5.623h-5.624Zm7.5-23.744V105.4a.634.634,0,0,0-.625-.625h-1.25a.632.632,0,0,0-.624.625v5.623a.632.632,0,0,0,.624.625h1.25a.634.634,0,0,0,.625-.625Zm-.625,9.373h6.249v-5.623h-6.249Zm0,7.5h6.249v-6.249h-6.249Zm0,6.873h6.249v-5.623h-6.249Zm7.5-14.372h6.249v-5.623h-6.249Zm0,7.5h6.249v-6.249h-6.249Zm0,6.873h6.249v-5.623h-6.249Zm8.123-23.744V105.4a.633.633,0,0,0-.625-.625h-1.249a.634.634,0,0,0-.626.625v5.623a.634.634,0,0,0,.626.625h1.249a.633.633,0,0,0,.625-.625Zm-.625,9.373h5.624v-5.623h-5.624Zm0,7.5h5.624v-6.249h-5.624Zm0,6.873h5.624v-5.623h-5.624Z" transform="translate(-1049.172 -102.277)"/></g></svg>